# xmcd CD database file
#
# Track frame offsets:
#	183
#	7333
#	23160
#	38685
#	50888
#	61625
#	73703
#	83820
#	110340
#	117558
#	123905
#	136553
#	152375
#	167745
#	183885
#	203438
#	219253
#	230958
#	246208
#	257678
#	276075
#	295040
#
# Disc length: 4095 seconds
#
# Revision: 0
# Processed by: cddbd v1.5.2PL0 Copyright (c) Steve Scherf et al.
# Submitted via: CDex 1.99.1
#
DISCID=2f0ffd16
DTITLE=Various Artist - Red River Blues 1934 - 1943
DYEAR=1900
DGENRE=Blues
TTITLE0=Blind Joe - When I Lie Down
TTITLE1=Blind Joe - In Trouble
TTITLE2=Reese Crenshaw - Trouble
TTITLE3=Robert Davis - Poor Joe Breakdown
TTITLE4=Jimmy Owens - Not Satisfied
TTITLE5=Willie Williams - Red River Blues
TTITLE6=J. Wilson - Barrel House Blues
TTITLE7=Jimmie Strothers - Goin' To Richmond
TTITLE8=Allison Mathis - Mama You Goin' To Quit Me
TTITLE9=Smith Band - Fort Valley Blues
TTITLE10=Buster Brown - War Song
TTITLE11=Gus Gibson - Milk Cow Blues
TTITLE12=Sonny Chestain - Po' Boy Long Way From Home
TTITLE13=Buster Brown - I'm Gonna Make You Happy
TTITLE14=Gus Gibson - Railroad Song
TTITLE15=James Sneed's Washboard Band - Southern Rag
TTITLE16=Allison Mathis and Jessie Stroller - John Henry
TTITLE17=Gabriel Brown - Talking In Sebastopol
TTITLE18=Booker T. Sapps - Alabama Blues (Part 1 from Ruined Tape)
TTITLE19=Booker T. Sapps - The Weeping Worry Blues
TTITLE20=Willy Flowers - Levee Camp Holler
TTITLE21=Booker T. Sapps - Boot That Thing
EXTD=
EXTT0=
EXTT1=
EXTT2=
EXTT3=
EXTT4=
EXTT5=
EXTT6=
EXTT7=
EXTT8=
EXTT9=
EXTT10=
EXTT11=
EXTT12=
EXTT13=
EXTT14=
EXTT15=
EXTT16=
EXTT17=
EXTT18=
EXTT19=
EXTT20=
EXTT21=
PLAYORDER=
